# Blender v2.78 (sub 0) OBJ File: 'Furnitures.blend'
# www.blender.org
o Table_Square
v 8.169841 12.484549 3.071483
v 3.169841 12.484549 8.071483
v 7.789239 12.484549 4.984900
v 6.705374 12.484549 6.607017
v 5.083258 12.484549 7.690880
v 3.680920 12.581335 3.884772
v 3.091166 12.581335 4.129056
v 2.846880 12.581335 4.718811
v 3.091166 12.581335 5.308566
v 3.680920 12.581335 5.552850
v 4.270675 12.581335 5.308566
v 4.514959 12.581335 4.718811
v 4.270675 12.581335 4.129056
v 3.680920 -0.021574 3.884772
v 3.091166 -0.021574 4.129056
v 2.846880 -0.021574 4.718811
v 3.091166 -0.021574 5.308566
v 3.680920 -0.021574 5.552850
v 4.270675 -0.021574 5.308566
v 4.514959 -0.021574 4.718811
v 4.270675 -0.021574 4.129056
v 3.169841 13.349121 8.071483
v 8.169841 13.349121 3.071483
v 5.083258 13.349121 7.690880
v 6.705374 13.349121 6.607017
v 7.789239 13.349121 4.984900
v 8.169841 14.213694 3.071483
v 3.169841 14.213694 8.071483
v 7.789239 14.213694 4.984900
v 6.705374 14.213694 6.607017
v 5.083258 14.213694 7.690880
v -8.169841 12.484549 3.071483
v -3.169841 12.484549 8.071483
v -7.789239 12.484549 4.984900
v -6.705374 12.484549 6.607017
v -5.083258 12.484549 7.690880
v -3.680920 12.581335 3.884772
v -3.091166 12.581335 4.129056
v -2.846880 12.581335 4.718811
v -3.091166 12.581335 5.308566
v -3.680920 12.581335 5.552850
v -4.270675 12.581335 5.308566
v -4.514959 12.581335 4.718811
v -4.270675 12.581335 4.129056
v -3.680920 -0.021574 3.884772
v -3.091166 -0.021574 4.129056
v -2.846880 -0.021574 4.718811
v -3.091166 -0.021574 5.308566
v -3.680920 -0.021574 5.552850
v -4.270675 -0.021574 5.308566
v -4.514959 -0.021574 4.718811
v -4.270675 -0.021574 4.129056
v 0.000000 12.484549 8.071483
v -3.169841 13.349121 8.071483
v -8.169841 13.349121 3.071483
v -5.083258 13.349121 7.690880
v -6.705374 13.349121 6.607017
v -7.789239 13.349121 4.984900
v -8.169841 14.213694 3.071483
v -3.169841 14.213694 8.071483
v -7.789239 14.213694 4.984900
v -6.705374 14.213694 6.607017
v -5.083258 14.213694 7.690880
v 0.000000 14.213694 8.071483
v 0.000000 13.349121 8.071483
v 8.169841 12.484549 -3.071483
v 3.169841 12.484549 -8.071483
v 7.789239 12.484549 -4.984900
v 6.705374 12.484549 -6.607017
v 5.083258 12.484549 -7.690880
v 3.680920 12.581335 -3.884772
v 3.091166 12.581335 -4.129056
v 2.846880 12.581335 -4.718811
v 3.091166 12.581335 -5.308566
v 3.680920 12.581335 -5.552850
v 4.270675 12.581335 -5.308566
v 4.514959 12.581335 -4.718811
v 4.270675 12.581335 -4.129056
v 3.680920 -0.021574 -3.884772
v 3.091166 -0.021574 -4.129056
v 2.846880 -0.021574 -4.718811
v 3.091166 -0.021574 -5.308566
v 3.680920 -0.021574 -5.552850
v 4.270675 -0.021574 -5.308566
v 4.514959 -0.021574 -4.718811
v 4.270675 -0.021574 -4.129056
v 8.169841 12.484549 0.000000
v 3.169841 13.349121 -8.071483
v 8.169841 13.349121 -3.071483
v 5.083258 13.349121 -7.690880
v 6.705374 13.349121 -6.607017
v 7.789239 13.349121 -4.984900
v 8.169841 14.213694 -3.071483
v 3.169841 14.213694 -8.071483
v 7.789239 14.213694 -4.984900
v 6.705374 14.213694 -6.607017
v 5.083258 14.213694 -7.690880
v 8.169841 14.213694 0.000000
v 8.169841 13.349121 0.000000
v -8.169841 12.484549 -3.071483
v -3.169841 12.484549 -8.071483
v -7.789239 12.484549 -4.984900
v -6.705374 12.484549 -6.607017
v -5.083258 12.484549 -7.690880
v -3.680920 12.581335 -3.884772
v -3.091166 12.581335 -4.129056
v -2.846880 12.581335 -4.718811
v -3.091166 12.581335 -5.308566
v -3.680920 12.581335 -5.552850
v -4.270675 12.581335 -5.308566
v -4.514959 12.581335 -4.718811
v -4.270675 12.581335 -4.129056
v -3.680920 -0.021574 -3.884772
v -3.091166 -0.021574 -4.129056
v -2.846880 -0.021574 -4.718811
v -3.091166 -0.021574 -5.308566
v -3.680920 -0.021574 -5.552850
v -4.270675 -0.021574 -5.308566
v -4.514959 -0.021574 -4.718811
v -4.270675 -0.021574 -4.129056
v 0.000000 12.484549 -8.071483
v -8.169841 12.484549 0.000000
v 0.000000 12.484549 0.000000
v -3.169841 13.349121 -8.071483
v -8.169841 13.349121 -3.071483
v -5.083258 13.349121 -7.690880
v -6.705374 13.349121 -6.607017
v -7.789239 13.349121 -4.984900
v -8.169841 14.213694 -3.071483
v -3.169841 14.213694 -8.071483
v -7.789239 14.213694 -4.984900
v -6.705374 14.213694 -6.607017
v -5.083258 14.213694 -7.690880
v 0.000000 14.213694 -8.071483
v 0.000000 13.349121 -8.071483
v -8.169841 14.213694 0.000000
v -8.169841 13.349121 0.000000
v 0.000000 14.213694 0.000000
vt 0.5058 0.8450
vt 0.4940 0.9042
vt 0.4103 0.9880
vt 0.8459 0.9433
vt 0.9409 0.9700
vt 0.8459 0.9700
vt 0.6044 0.9700
vt 0.5063 0.9433
vt 0.6044 0.9433
vt 0.6648 0.9700
vt 0.6648 0.9433
vt 0.7252 0.9700
vt 0.7855 0.9433
vt 0.7855 0.9700
vt 0.2530 0.7500
vt 0.5058 0.7500
vt 0.2530 0.9997
vt 0.6249 0.7807
vt 0.6446 0.3907
vt 0.6446 0.7807
vt 0.5854 0.7807
vt 0.6051 0.3907
vt 0.6051 0.7807
vt 0.5459 0.7807
vt 0.5656 0.3907
vt 0.5656 0.7807
vt 0.5063 0.7807
vt 0.5261 0.3907
vt 0.5261 0.7807
vt 0.6644 0.3907
vt 0.6644 0.7807
vt 0.6249 0.3907
vt 0.5854 0.3907
vt 0.5458 0.3907
vt 0.4103 0.0120
vt 0.4605 0.0456
vt 0.5058 0.1550
vt 0.8459 0.9968
vt 0.5063 0.9968
vt 0.6044 0.9968
vt 0.6648 0.9968
vt 0.7855 0.9968
vt 0.7252 0.9968
vt 0.2530 0.2500
vt 0.2530 0.0003
vt 0.5058 0.2500
vt 0.0958 0.9880
vt 0.0456 0.9544
vt 0.0003 0.8450
vt 0.5063 0.8620
vt 0.6014 0.8352
vt 0.6014 0.8620
vt 0.9409 0.8352
vt 0.8428 0.8620
vt 0.8428 0.8352
vt 0.7825 0.8620
vt 0.7221 0.8620
vt 0.7825 0.8352
vt 0.6617 0.8352
vt 0.7221 0.8352
vt 0.6617 0.8620
vt 0.0003 0.7500
vt 0.6846 0.0003
vt 0.7044 0.3902
vt 0.6846 0.3902
vt 0.7241 0.0003
vt 0.7439 0.3902
vt 0.7241 0.3902
vt 0.7636 0.0003
vt 0.7834 0.3902
vt 0.7636 0.3902
vt 0.8031 0.0003
vt 0.8229 0.3902
vt 0.8031 0.3902
vt 0.6649 0.0003
vt 0.6649 0.3902
vt 0.7044 0.0003
vt 0.7439 0.0003
vt 0.7834 0.0003
vt 0.0003 0.1550
vt 0.0120 0.0958
vt 0.0958 0.0120
vt 0.6014 0.8887
vt 0.9409 0.8887
vt 0.8428 0.8887
vt 0.7825 0.8887
vt 0.6617 0.8887
vt 0.0003 0.2500
vt 0.4103 0.5120
vt 0.4605 0.5456
vt 0.5058 0.6550
vt 0.9409 0.8079
vt 0.8459 0.8347
vt 0.8459 0.8079
vt 0.5063 0.8347
vt 0.6044 0.8079
vt 0.6044 0.8347
vt 0.6648 0.8079
vt 0.7252 0.8079
vt 0.6648 0.8347
vt 0.7855 0.8347
vt 0.7252 0.8347
vt 0.7855 0.8079
vt 0.2530 0.5003
vt 0.5261 0.0003
vt 0.5458 0.3902
vt 0.5261 0.3902
vt 0.5656 0.0003
vt 0.5854 0.3902
vt 0.5656 0.3902
vt 0.6051 0.0003
vt 0.6249 0.3902
vt 0.6051 0.3902
vt 0.6446 0.0003
vt 0.6644 0.3902
vt 0.6446 0.3902
vt 0.5063 0.0003
vt 0.5063 0.3902
vt 0.5458 0.0003
vt 0.5854 0.0003
vt 0.6249 0.0003
vt 0.5058 0.3450
vt 0.4940 0.4042
vt 0.4103 0.4880
vt 0.8459 0.7812
vt 0.5063 0.7812
vt 0.6044 0.7812
vt 0.6648 0.7812
vt 0.7855 0.7812
vt 0.2530 0.4997
vt 0.0003 0.6550
vt 0.0120 0.5958
vt 0.0958 0.5120
vt 0.6014 0.9427
vt 0.5063 0.9160
vt 0.6014 0.9160
vt 0.8428 0.9160
vt 0.9409 0.9427
vt 0.8428 0.9427
vt 0.7825 0.9160
vt 0.7825 0.9427
vt 0.7221 0.9160
vt 0.6617 0.9427
vt 0.6617 0.9160
vt 0.9419 0.3902
vt 0.9617 0.0003
vt 0.9617 0.3902
vt 0.9024 0.3902
vt 0.9222 0.0003
vt 0.9222 0.3902
vt 0.8629 0.3902
vt 0.8827 0.0003
vt 0.8827 0.3902
vt 0.8234 0.3902
vt 0.8432 0.0003
vt 0.8432 0.3902
vt 0.9814 0.0003
vt 0.9814 0.3902
vt 0.9419 0.0003
vt 0.9024 0.0003
vt 0.8629 0.0003
vt 0.0958 0.4880
vt 0.0456 0.4544
vt 0.0003 0.3450
vt 0.6014 0.8892
vt 0.9409 0.8892
vt 0.8428 0.8892
vt 0.7825 0.8892
vt 0.6617 0.8892
vt 0.7221 0.8892
vt 0.3511 0.9997
vt 0.4605 0.9544
vt 0.9409 0.9433
vt 0.5063 0.9700
vt 0.7252 0.9433
vt 0.5063 0.3907
vt 0.3511 0.0003
vt 0.4940 0.0958
vt 0.9409 0.9968
vt 0.1550 0.9997
vt 0.0120 0.9042
vt 0.5063 0.8352
vt 0.9409 0.8620
vt 0.8229 0.0003
vt 0.1550 0.0003
vt 0.0456 0.0456
vt 0.5063 0.8887
vt 0.7221 0.8887
vt 0.3511 0.5003
vt 0.4940 0.5958
vt 0.9409 0.8347
vt 0.5063 0.8079
vt 0.6644 0.0003
vt 0.3511 0.4997
vt 0.4605 0.4544
vt 0.9409 0.7812
vt 0.7252 0.7812
vt 0.1550 0.5003
vt 0.0456 0.5456
vt 0.5063 0.9427
vt 0.9409 0.9160
vt 0.7221 0.9427
vt 0.8234 0.0003
vt 0.1550 0.4997
vt 0.0120 0.4042
vt 0.5063 0.8892
vn 0.7244 -0.6857 0.0713
vn 0.6894 -0.6657 0.2855
vn 0.2855 -0.6657 0.6894
vn 1.0000 0.0000 0.0000
vn 0.9952 0.0000 0.0980
vn 0.0980 0.0000 0.9952
vn 0.0000 -0.7071 0.7071
vn 0.0713 -0.6857 0.7244
vn 0.3827 0.0000 0.9239
vn 0.7071 0.0000 0.7071
vn 0.9239 0.0000 0.3827
vn 0.0000 -1.0000 0.0000
vn 0.7071 -0.7071 0.0000
vn 0.7071 0.0000 -0.7071
vn 0.0000 0.0000 1.0000
vn -1.0000 0.0000 0.0000
vn -0.7071 0.0000 0.7071
vn 0.0000 0.0000 -1.0000
vn -0.7071 0.0000 -0.7071
vn 0.2855 0.6657 0.6894
vn 0.5276 0.6657 0.5276
vn 0.7244 0.6857 0.0713
vn 0.0000 0.7071 0.7071
vn 0.0713 0.6857 0.7244
vn 0.6894 0.6657 0.2855
vn 0.0000 1.0000 0.0000
vn 0.7071 0.7071 0.0000
vn -0.2855 -0.6657 0.6894
vn -0.5276 -0.6657 0.5276
vn -0.7244 -0.6857 0.0713
vn -0.9952 0.0000 0.0980
vn -0.0980 0.0000 0.9952
vn -0.0713 -0.6857 0.7244
vn -0.3827 0.0000 0.9239
vn -0.6894 -0.6657 0.2855
vn -0.9239 0.0000 0.3827
vn -0.7071 -0.7071 0.0000
vn -0.7244 0.6857 0.0713
vn -0.6894 0.6657 0.2855
vn -0.2855 0.6657 0.6894
vn -0.0713 0.6857 0.7244
vn -0.7071 0.7071 0.0000
vn 0.2855 -0.6657 -0.6894
vn 0.5276 -0.6657 -0.5276
vn 0.7244 -0.6857 -0.0713
vn 0.9952 0.0000 -0.0980
vn 0.0000 -0.7071 -0.7071
vn 0.0980 0.0000 -0.9952
vn 0.0713 -0.6857 -0.7244
vn 0.3827 0.0000 -0.9239
vn 0.6894 -0.6657 -0.2855
vn 0.9239 0.0000 -0.3827
vn 0.7244 0.6857 -0.0713
vn 0.6894 0.6657 -0.2855
vn 0.2855 0.6657 -0.6894
vn 0.0000 0.7071 -0.7071
vn 0.0713 0.6857 -0.7244
vn -0.7244 -0.6857 -0.0713
vn -0.6894 -0.6657 -0.2855
vn -0.2855 -0.6657 -0.6894
vn -0.9952 0.0000 -0.0980
vn -0.0980 0.0000 -0.9952
vn -0.0713 -0.6857 -0.7244
vn -0.3827 0.0000 -0.9239
vn -0.9239 0.0000 -0.3827
vn -0.2855 0.6657 -0.6894
vn -0.5276 0.6657 -0.5276
vn -0.7244 0.6857 -0.0713
vn -0.0713 0.6857 -0.7244
vn -0.6894 0.6657 -0.2855
vn 0.5276 -0.6657 0.5276
vn -0.5276 0.6657 0.5276
vn 0.5276 0.6657 -0.5276
vn -0.5276 -0.6657 -0.5276
s 1
g Table_Square
f 1/1/1 3/2/2 5/3/3
f 1/4/1 99/5/4 23/6/5
f 22/7/6 53/8/7 2/9/8
f 2/9/8 24/10/9 22/7/6
f 5/11/3 25/12/10 24/10/9
f 25/12/10 3/13/2 26/14/11
f 26/14/11 1/4/1 23/6/5
f 123/15/12 87/16/13 53/17/7
f 12/18/4 21/19/14 13/20/14
f 10/21/15 19/22/10 11/23/10
f 8/24/16 17/25/17 9/26/17
f 6/27/18 15/28/19 7/29/19
f 13/20/14 14/30/18 6/31/18
f 11/23/10 20/32/4 12/18/4
f 9/26/17 18/33/15 10/21/15
f 7/29/19 16/34/16 8/24/16
f 31/35/20 30/36/21 27/37/22
f 99/5/4 27/38/22 23/6/5
f 64/39/23 22/7/6 28/40/24
f 24/10/9 28/40/24 22/7/6
f 25/12/10 31/41/20 24/10/9
f 25/12/10 29/42/25 30/43/21
f 26/14/11 27/38/22 29/42/25
f 138/44/26 64/45/23 98/46/27
f 36/47/28 35/48/29 32/49/30
f 137/50/16 32/51/30 55/52/31
f 53/53/7 54/54/32 33/55/33
f 56/56/34 33/55/33 54/54/32
f 57/57/17 36/58/28 56/56/34
f 57/57/17 34/59/35 35/60/29
f 58/61/36 32/51/30 34/59/35
f 123/15/12 53/17/7 122/62/37
f 52/63/19 43/64/16 44/65/19
f 50/66/17 41/67/15 42/68/17
f 48/69/10 39/70/4 40/71/10
f 46/72/14 37/73/18 38/74/14
f 45/75/18 44/65/19 37/76/18
f 51/77/16 42/68/17 43/64/16
f 49/78/15 40/71/10 41/67/15
f 47/79/4 38/74/14 39/70/4
f 59/80/38 61/81/39 63/82/40
f 59/83/38 137/50/16 55/52/31
f 54/54/32 64/84/23 60/85/41
f 60/85/41 56/56/34 54/54/32
f 63/86/40 57/57/17 56/56/34
f 57/57/17 61/87/39 58/61/36
f 58/61/36 59/83/38 55/52/31
f 138/44/26 136/88/42 64/45/23
f 70/89/43 69/90/44 66/91/45
f 99/92/4 66/93/45 89/94/46
f 121/95/47 88/96/48 67/97/49
f 90/98/50 67/97/49 88/96/48
f 91/99/14 70/100/43 90/98/50
f 91/99/14 68/101/51 69/102/44
f 92/103/52 66/93/45 68/101/51
f 123/15/12 121/104/47 87/16/13
f 86/105/10 77/106/4 78/107/10
f 84/108/14 75/109/18 76/110/14
f 82/111/19 73/112/16 74/113/19
f 80/114/17 71/115/15 72/116/17
f 79/117/15 78/107/10 71/118/15
f 85/119/4 76/110/14 77/106/4
f 83/120/18 74/113/19 75/109/18
f 81/121/16 72/116/17 73/112/16
f 93/122/53 95/123/54 97/124/55
f 93/125/53 99/92/4 89/94/46
f 88/96/48 134/126/56 94/127/57
f 94/127/57 90/98/50 88/96/48
f 97/128/55 91/99/14 90/98/50
f 91/99/14 95/129/54 92/103/52
f 92/103/52 93/125/53 89/94/46
f 138/44/26 98/46/27 134/130/56
f 100/131/58 102/132/59 104/133/60
f 100/134/58 137/135/16 125/136/61
f 124/137/62 121/138/47 101/139/63
f 101/139/63 126/140/64 124/137/62
f 104/141/60 127/142/19 126/140/64
f 127/142/19 102/143/59 128/144/65
f 128/144/65 100/134/58 125/136/61
f 123/15/12 122/62/37 121/104/47
f 111/145/16 120/146/17 112/147/17
f 109/148/18 118/149/19 110/150/19
f 107/151/4 116/152/14 108/153/14
f 105/154/15 114/155/10 106/156/10
f 112/147/17 113/157/15 105/158/15
f 110/150/19 119/159/16 111/145/16
f 108/153/14 117/160/18 109/148/18
f 106/156/10 115/161/4 107/151/4
f 133/162/66 132/163/67 129/164/68
f 137/135/16 129/165/68 125/136/61
f 134/166/56 124/137/62 130/167/69
f 126/140/64 130/167/69 124/137/62
f 127/142/19 133/168/66 126/140/64
f 127/142/19 131/169/70 132/170/67
f 128/144/65 129/165/68 131/169/70
f 138/44/26 134/130/56 136/88/42
f 2/171/8 53/17/7 87/16/13
f 87/16/13 1/1/1 2/171/8
f 3/2/2 4/172/71 5/3/3
f 5/3/3 2/171/8 1/1/1
f 1/4/1 87/173/13 99/5/4
f 22/7/6 65/174/15 53/8/7
f 2/9/8 5/11/3 24/10/9
f 5/11/3 4/175/71 25/12/10
f 25/12/10 4/175/71 3/13/2
f 26/14/11 3/13/2 1/4/1
f 12/18/4 20/32/4 21/19/14
f 10/21/15 18/33/15 19/22/10
f 8/24/16 16/34/16 17/25/17
f 6/27/18 14/176/18 15/28/19
f 13/20/14 21/19/14 14/30/18
f 11/23/10 19/22/10 20/32/4
f 9/26/17 17/25/17 18/33/15
f 7/29/19 15/28/19 16/34/16
f 98/46/27 64/45/23 28/177/24
f 28/177/24 31/35/20 27/37/22
f 30/36/21 29/178/25 27/37/22
f 27/37/22 98/46/27 28/177/24
f 99/5/4 98/179/27 27/38/22
f 64/39/23 65/174/15 22/7/6
f 24/10/9 31/41/20 28/40/24
f 25/12/10 30/43/21 31/41/20
f 25/12/10 26/14/11 29/42/25
f 26/14/11 23/6/5 27/38/22
f 122/62/37 53/17/7 33/180/33
f 33/180/33 36/47/28 32/49/30
f 35/48/29 34/181/35 32/49/30
f 32/49/30 122/62/37 33/180/33
f 137/50/16 122/182/37 32/51/30
f 53/53/7 65/183/15 54/54/32
f 56/56/34 36/58/28 33/55/33
f 57/57/17 35/60/29 36/58/28
f 57/57/17 58/61/36 34/59/35
f 58/61/36 55/52/31 32/51/30
f 52/63/19 51/77/16 43/64/16
f 50/66/17 49/78/15 41/67/15
f 48/69/10 47/79/4 39/70/4
f 46/72/14 45/184/18 37/73/18
f 45/75/18 52/63/19 44/65/19
f 51/77/16 50/66/17 42/68/17
f 49/78/15 48/69/10 40/71/10
f 47/79/4 46/72/14 38/74/14
f 60/185/41 64/45/23 136/88/42
f 136/88/42 59/80/38 60/185/41
f 61/81/39 62/186/72 63/82/40
f 63/82/40 60/185/41 59/80/38
f 59/83/38 136/187/42 137/50/16
f 54/54/32 65/183/15 64/84/23
f 60/85/41 63/86/40 56/56/34
f 63/86/40 62/188/72 57/57/17
f 57/57/17 62/188/72 61/87/39
f 58/61/36 61/87/39 59/83/38
f 87/16/13 121/104/47 67/189/49
f 67/189/49 70/89/43 66/91/45
f 69/90/44 68/190/51 66/91/45
f 66/91/45 87/16/13 67/189/49
f 99/92/4 87/191/13 66/93/45
f 121/95/47 135/192/18 88/96/48
f 90/98/50 70/100/43 67/97/49
f 91/99/14 69/102/44 70/100/43
f 91/99/14 92/103/52 68/101/51
f 92/103/52 89/94/46 66/93/45
f 86/105/10 85/119/4 77/106/4
f 84/108/14 83/120/18 75/109/18
f 82/111/19 81/121/16 73/112/16
f 80/114/17 79/193/15 71/115/15
f 79/117/15 86/105/10 78/107/10
f 85/119/4 84/108/14 76/110/14
f 83/120/18 82/111/19 74/113/19
f 81/121/16 80/114/17 72/116/17
f 94/194/57 134/130/56 98/46/27
f 98/46/27 93/122/53 94/194/57
f 95/123/54 96/195/73 97/124/55
f 97/124/55 94/194/57 93/122/53
f 93/125/53 98/196/27 99/92/4
f 88/96/48 135/192/18 134/126/56
f 94/127/57 97/128/55 90/98/50
f 97/128/55 96/197/73 91/99/14
f 91/99/14 96/197/73 95/129/54
f 92/103/52 95/129/54 93/125/53
f 101/198/63 121/104/47 122/62/37
f 122/62/37 100/131/58 101/198/63
f 102/132/59 103/199/74 104/133/60
f 104/133/60 101/198/63 100/131/58
f 100/134/58 122/200/37 137/135/16
f 124/137/62 135/201/18 121/138/47
f 101/139/63 104/141/60 126/140/64
f 104/141/60 103/202/74 127/142/19
f 127/142/19 103/202/74 102/143/59
f 128/144/65 102/143/59 100/134/58
f 111/145/16 119/159/16 120/146/17
f 109/148/18 117/160/18 118/149/19
f 107/151/4 115/161/4 116/152/14
f 105/154/15 113/203/15 114/155/10
f 112/147/17 120/146/17 113/157/15
f 110/150/19 118/149/19 119/159/16
f 108/153/14 116/152/14 117/160/18
f 106/156/10 114/155/10 115/161/4
f 136/88/42 134/130/56 130/204/69
f 130/204/69 133/162/66 129/164/68
f 132/163/67 131/205/70 129/164/68
f 129/164/68 136/88/42 130/204/69
f 137/135/16 136/206/42 129/165/68
f 134/166/56 135/201/18 124/137/62
f 126/140/64 133/168/66 130/167/69
f 127/142/19 132/170/67 133/168/66
f 127/142/19 128/144/65 131/169/70
f 128/144/65 125/136/61 129/165/68
